# xmcd CD database file
#
# Track frame offsets:
#	150
#	19382
#	48127
#	77090
#	107025
#	128875
#	157762
#	187907
#	221842
#
# Disc length: 3281 seconds
#
# Revision: 0
# Processed by: cddbd v1.5.1PL0 Copyright (c) Steve Scherf et al.
# Submitted via: CDex 1.51
#
DISCID=6e0ccf09
DTITLE=Dominick Farinacci - Smile
DYEAR=2005
DGENRE=Jazz
TTITLE0=WHO CARES
TTITLE1=THE NEARNESS OF YOU
TTITLE2=ESTATE
TTITLE3=JUST ONE OF THOSE THINGS
TTITLE4=I REMEMBER CLIFFORD
TTITLE5=COME RAIN OR COME SHINE
TTITLE6=THE GREY GOOSE
TTITLE7=RELAXIN' AT PETER'S
TTITLE8=SMILE
EXTD=YEAR: 2005
EXTT0=
EXTT1=
EXTT2=
EXTT3=
EXTT4=
EXTT5=
EXTT6=
EXTT7=
EXTT8=
PLAYORDER=
